<?xml version="1.0" standalone="no"?>
<!DOCTYPE svg PUBLIC "-//W3C//DTD SVG 20010904//EN"
 "http://www.w3.org/TR/2001/REC-SVG-20010904/DTD/svg10.dtd">
<svg version="1.0" xmlns="http://www.w3.org/2000/svg"
 width="3451.000000pt" height="3431.000000pt" viewBox="0 0 3451.000000 3431.000000"
 preserveAspectRatio="xMidYMid meet">
<metadata>
Created by potrace 1.16, written by Peter Selinger 2001-2019
</metadata>
<g transform="translate(0.000000,3431.000000) scale(0.100000,-0.100000)"
fill="#000000" stroke="none">
<path d="M17030 27706 c-30 -13 -102 -46 -160 -73 -310 -148 -1102 -409 -1695
-559 -151 -39 -647 -139 -855 -173 -981 -162 -2057 -158 -3065 10 -517 86
-852 156 -1095 229 -681 204 -882 272 -1232 417 -368 151 -426 170 -443 143
-4 -6 -11 -99 -15 -208 -5 -108 -14 -242 -20 -297 -6 -55 -29 -449 -51 -875
-37 -702 -42 -838 -46 -1450 -5 -690 3 -1052 32 -1380 8 -91 15 -237 15 -325
0 -88 5 -189 10 -225 5 -36 14 -141 20 -235 20 -310 122 -1247 176 -1620 113
-779 378 -1994 600 -2760 142 -487 497 -1487 659 -1855 331 -750 546 -1187
885 -1800 464 -838 1154 -1833 1770 -2550 520 -604 1064 -1165 1688 -1737 177
-163 320 -298 318 -300 -6 -6 -632 154 -830 212 -165 48 -779 262 -1001 348
-522 202 -1628 755 -1975 987 -30 20 -61 40 -68 44 -9 5 -51 -29 -130 -106
-64 -63 -182 -174 -262 -248 -80 -74 -246 -233 -370 -355 -124 -122 -263 -255
-310 -295 -47 -41 -116 -105 -153 -143 l-69 -70 -421 420 c-521 518 -692 665
-858 735 -193 81 -503 76 -864 -13 -284 -71 -616 -195 -1265 -474 -320 -138
-388 -166 -614 -251 -111 -42 -214 -83 -231 -91 l-30 -16 47 -41 c26 -23 96
-70 155 -105 59 -36 277 -173 483 -306 206 -133 962 -620 1680 -1082 718 -462
1379 -889 1470 -948 91 -59 323 -208 517 -331 194 -123 468 -299 610 -392 665
-434 761 -494 780 -483 26 13 104 99 131 142 37 62 63 150 69 239 5 76 2 102
-31 234 -20 81 -36 149 -34 151 2 1 62 -23 133 -55 452 -201 1520 -548 2245
-730 262 -65 662 -146 1060 -214 536 -92 779 -123 1280 -166 195 -16 438 -37
540 -45 652 -56 1615 -29 2560 71 606 64 1460 213 2001 349 809 204 1493 429
2321 763 l146 60 -14 -47 c-87 -281 -90 -413 -14 -567 37 -76 135 -194 161
-194 5 0 352 221 772 492 419 270 1210 780 1757 1133 547 353 1108 716 1245
807 138 90 403 261 590 378 187 118 444 281 570 363 127 83 306 197 399 254
264 163 386 248 386 269 0 15 -107 61 -390 167 -124 46 -391 155 -594 242
-748 319 -979 398 -1356 467 -175 31 -438 32 -552 0 -101 -27 -213 -83 -313
-154 -101 -72 -362 -317 -592 -557 -170 -176 -283 -281 -304 -281 -5 0 -62 51
-127 113 -64 62 -133 126 -152 141 -19 16 -244 229 -499 475 -255 245 -470
448 -478 449 -8 2 -76 -34 -151 -81 -425 -262 -627 -372 -1239 -671 -636 -312
-823 -394 -1253 -549 -286 -104 -855 -290 -965 -315 -44 -11 -165 -42 -270
-70 -189 -51 -391 -96 -404 -90 -4 2 196 201 445 443 976 948 977 950 1692
1800 549 654 825 1012 1219 1580 285 411 743 1151 1006 1627 141 253 566 1119
696 1417 203 463 450 1128 612 1644 217 696 341 1154 450 1667 173 820 204
1017 313 2010 75 687 87 838 106 1330 27 707 32 986 21 1119 -6 74 -11 215
-11 312 0 206 -50 1106 -80 1449 -20 220 -31 325 -80 775 -11 99 -27 239 -35
311 -16 150 -26 184 -53 184 -11 0 -76 -27 -145 -59 -610 -289 -1221 -506
-1756 -626 -307 -68 -758 -137 -1116 -169 -533 -49 -1228 -49 -1785 -1 -448
39 -1029 131 -1560 246 -487 106 -492 107 -1030 254 -437 120 -503 140 -932
279 -148 47 -284 86 -305 86 -21 0 -63 -11 -93 -24z m5270 -1368 c0 -3 -372
-369 -827 -814 -456 -445 -880 -861 -943 -925 -63 -63 -182 -178 -265 -254
-82 -77 -325 -311 -538 -521 -312 -307 -390 -389 -396 -416 -4 -18 -5 -279 -3
-579 l4 -546 102 -6 c141 -9 172 -20 233 -79 56 -55 67 -83 79 -200 l7 -68
252 0 252 0 88 112 c49 61 109 134 133 162 69 81 76 98 57 152 -23 68 -19 132
11 192 88 176 332 169 426 -12 38 -74 20 -186 -40 -250 -47 -50 -96 -66 -202
-66 -94 0 -96 -1 -112 -27 -9 -16 -69 -90 -132 -167 -64 -76 -129 -156 -144
-177 l-27 -39 -276 0 -276 0 -7 -46 c-3 -26 -6 -61 -6 -79 l0 -33 483 1 c265
1 497 -2 515 -6 27 -7 32 -13 32 -38 l0 -29 -515 0 -515 0 0 -134 0 -134 258
-7 c304 -9 1405 1 1477 14 46 8 57 16 156 119 81 84 108 119 112 144 3 18 2
318 -1 666 l-5 633 -36 15 c-58 24 -98 61 -125 116 -59 118 -11 253 109 309
48 22 151 25 198 6 177 -75 193 -315 27 -412 l-50 -29 0 -186 c0 -102 1 -381
2 -620 1 -239 2 -468 3 -508 l0 -72 -160 -155 -160 -154 -902 -1 -903 0 0 -95
0 -95 494 0 c436 0 496 -2 510 -16 12 -12 13 -20 6 -35 -6 -10 -16 -20 -23
-20 -7 -1 -230 -2 -497 -3 l-485 -1 -3 -115 c-2 -63 0 -134 3 -158 l6 -42 496
0 c426 1 499 -1 511 -14 13 -12 13 -18 2 -30 -11 -14 -73 -16 -516 -16 l-504
0 0 -104 0 -104 68 -8 c37 -4 450 -4 917 -1 468 4 858 7 867 7 10 0 164 147
343 327 255 257 326 334 329 358 3 16 12 459 21 984 14 873 17 957 33 982 9
15 108 123 219 241 238 251 932 993 1117 1193 72 77 277 293 456 480 180 187
373 391 431 454 223 245 593 631 604 631 6 0 26 -16 45 -35 l34 -35 -56 -58
c-30 -31 -637 -678 -1348 -1437 -712 -759 -1310 -1395 -1331 -1412 -73 -64
-69 -9 -88 -1078 -14 -786 -20 -965 -32 -986 -8 -15 -169 -184 -359 -377
l-345 -351 -710 -5 c-390 -3 -824 -5 -962 -5 l-253 -1 0 -145 0 -146 493 1
c270 0 499 1 508 0 22 0 33 -29 18 -46 -9 -12 -100 -14 -515 -14 l-504 0 0
-134 0 -134 1138 -4 c1001 -4 1141 -3 1172 11 21 9 153 134 340 322 168 169
314 312 326 317 16 9 26 6 52 -14 18 -14 32 -34 32 -45 0 -13 -124 -143 -347
-365 l-348 -346 -1090 7 c-599 3 -1132 3 -1182 -1 l-93 -7 0 -117 0 -118 33
-5 c17 -2 604 -2 1302 1 699 3 1309 2 1358 -2 l87 -8 0 -54 0 -54 -1387 0
-1388 0 -3 -110 -3 -110 498 0 c532 0 550 -2 525 -46 -10 -18 -30 -19 -514
-19 l-503 0 -3 -102 -3 -103 2371 0 2370 0 0 -60 0 -60 -2370 0 -2370 0 0
-150 0 -150 504 0 c443 0 505 -2 516 -16 11 -12 10 -18 -4 -32 -15 -15 -62
-17 -516 -20 l-500 -3 0 -138 0 -138 77 -7 c42 -3 415 -6 830 -6 610 0 760 -3
786 -14 19 -8 201 -184 454 -440 356 -362 427 -429 460 -438 21 -5 338 -14
728 -19 380 -5 704 -13 720 -18 28 -7 30 -11 33 -59 l3 -52 -198 0 c-410 0
-1328 21 -1355 32 -15 5 -220 205 -457 443 -389 392 -433 434 -468 439 -21 3
-392 8 -824 12 l-786 7 -7 -74 c-12 -130 -73 -218 -176 -254 -27 -9 -79 -15
-141 -15 l-99 0 0 -229 0 -229 23 -6 c12 -3 124 -3 248 1 l226 6 35 -34 c20
-19 197 -200 394 -404 l359 -370 105 0 c93 0 110 -3 147 -24 151 -86 150 -308
-1 -396 -89 -52 -200 -43 -277 23 -71 61 -96 155 -68 255 5 20 6 43 2 51 -11
19 -542 582 -647 686 l-87 85 -224 0 -224 0 -6 -33 c-3 -18 -3 -75 1 -126 7
-105 -3 -139 -39 -134 -17 2 -23 12 -29 43 -4 22 -7 217 -7 433 l-1 392 -145
0 -144 0 4 -62 c3 -35 7 -299 10 -588 4 -451 7 -527 20 -536 8 -6 86 -32 172
-58 87 -26 223 -68 303 -93 l145 -45 135 -138 c74 -76 194 -190 265 -255 72
-64 189 -176 260 -249 226 -229 489 -483 513 -496 29 -15 864 -34 1060 -24
l133 6 33 52 c61 94 101 117 202 117 70 0 126 -20 167 -59 127 -120 80 -338
-84 -386 -67 -20 -120 -20 -167 0 -45 18 -96 66 -124 115 l-20 36 -331 6
c-181 4 -456 7 -609 7 -240 0 -283 2 -311 17 -18 9 -237 217 -487 462 -658
645 -681 667 -725 689 -22 11 -128 45 -235 76 -243 71 -402 123 -424 139 -14
11 -17 74 -23 645 l-6 632 -27 0 c-15 0 -68 -3 -118 -6 l-92 -7 0 -1001 c0
-923 1 -1003 17 -1026 9 -14 76 -86 148 -160 475 -489 683 -704 851 -883 105
-111 209 -216 231 -233 l41 -31 1038 -7 c572 -3 1083 -9 1137 -12 l97 -7 0
-60 0 -60 -657 6 c-1221 12 -1638 18 -1661 23 -24 5 -241 223 -677 679 -126
132 -329 341 -451 465 -192 195 -223 230 -229 264 -5 22 -4 427 0 900 4 474 4
927 0 1009 l-8 147 -128 0 -128 0 -3 -307 c-3 -287 3 -1067 20 -2507 l7 -599
375 -369 c206 -203 389 -375 405 -382 24 -10 170 -11 740 -4 678 9 1708 4
1740 -8 11 -4 15 -21 15 -59 l0 -52 -49 -6 c-67 -8 -2493 4 -2508 12 -31 16
-819 798 -831 824 -10 22 -13 356 -17 1565 -3 845 -8 1615 -11 1710 l-6 172
-154 0 -154 0 0 -1880 c0 -1592 2 -1885 14 -1908 8 -15 99 -110 202 -212 104
-102 323 -318 487 -480 l297 -295 93 -6 c170 -11 247 -82 247 -226 -1 -136
-94 -225 -235 -225 -68 0 -115 16 -163 57 -71 60 -89 149 -52 255 11 30 19 58
20 61 0 4 -226 229 -502 500 -277 271 -508 504 -515 518 -10 20 -11 376 -6
1611 3 872 3 1731 -2 1910 l-7 325 -127 -3 c-69 -2 -128 -6 -130 -8 -3 -2 5
-1515 18 -3362 12 -1846 22 -3418 21 -3492 l0 -135 49 -27 c56 -32 118 -96
127 -133 3 -14 4 -52 2 -85 -14 -192 -232 -278 -394 -155 -42 32 -84 117 -84
169 1 78 63 166 149 211 l31 16 0 297 c0 163 -9 1553 -20 3087 -11 1535 -20
2976 -20 3203 l0 412 -119 0 -119 0 -7 -177 c-5 -98 -4 -871 0 -1718 5 -847 8
-1564 7 -1593 -2 -30 -9 -66 -16 -80 -16 -30 -84 -97 -166 -163 -30 -24 -183
-154 -339 -289 -521 -449 -538 -463 -715 -619 -78 -69 -174 -152 -214 -185
-58 -48 -72 -64 -68 -80 3 -12 9 -55 12 -97 8 -90 -8 -133 -65 -178 -61 -48
-100 -63 -162 -63 -212 0 -320 248 -173 396 52 52 78 59 184 53 52 -3 101 -7
108 -9 7 -1 345 287 752 642 l739 645 -2 1760 -2 1760 -111 3 -111 3 -6 -82
c-4 -45 -4 -237 0 -427 6 -325 5 -346 -12 -358 -12 -9 -23 -10 -36 -4 -16 9
-17 34 -12 435 l6 425 -151 0 -152 0 0 -435 0 -435 -29 0 c-17 0 -31 6 -35 16
-3 9 -6 204 -6 435 l0 419 -170 0 -171 0 2 -1330 c1 -1275 0 -1332 -18 -1365
-10 -19 -122 -140 -249 -267 l-232 -233 14 -85 c10 -60 11 -95 4 -122 -39
-143 -254 -203 -382 -105 -133 102 -114 301 37 380 42 22 138 29 201 15 29 -6
40 3 258 215 l228 222 9 101 c10 108 20 2377 11 2507 l-5 77 -148 0 -148 0 -7
-57 c-4 -32 -4 -225 0 -430 7 -350 6 -372 -11 -381 -11 -7 -24 -7 -35 -1 -17
9 -18 38 -18 439 l0 430 -127 0 -126 0 7 -837 c7 -928 10 -886 -57 -979 -40
-56 -43 -70 -25 -155 10 -49 9 -63 -7 -105 -50 -135 -209 -199 -333 -135 -83
43 -132 122 -132 214 0 144 134 238 300 211 l62 -10 24 31 c56 73 54 50 54
762 0 362 -3 736 -7 831 l-6 172 -60 0 c-234 0 -318 73 -334 290 l-8 105 -281
3 -281 2 -6 -106 c-4 -59 -7 -213 -8 -343 l0 -236 -53 -40 c-30 -22 -118 -99
-197 -171 -79 -73 -184 -169 -234 -214 -499 -452 -698 -631 -800 -720 -121
-105 -314 -282 -635 -580 -96 -90 -238 -217 -314 -284 -77 -67 -179 -157 -228
-201 -177 -159 -251 -223 -274 -236 -23 -12 -27 -10 -54 22 -16 19 -29 37 -30
40 0 3 17 23 38 45 36 38 912 828 1102 994 52 46 176 158 275 250 99 91 283
258 410 371 126 112 270 242 320 289 49 47 180 165 291 261 110 97 212 191
227 208 43 52 43 46 39 414 l-2 237 -169 0 c-94 0 -172 4 -175 9 -4 5 -2 21 4
36 l10 26 515 -3 515 -3 0 158 0 157 -615 0 -616 0 -982 -986 c-540 -543
-1125 -1126 -1300 -1296 l-318 -308 -39 32 c-22 17 -40 34 -40 38 0 20 387
411 1451 1464 900 891 1193 1175 1216 1180 17 4 298 6 626 4 327 -2 598 -1
600 2 3 3 7 48 8 100 l2 95 -683 3 c-473 1 -695 -1 -724 -9 -34 -9 -67 -37
-186 -157 -236 -239 -2421 -2357 -2433 -2360 -7 -1 -30 14 -52 33 l-40 34 225
223 c353 349 1184 1154 1302 1262 59 53 122 114 140 135 18 21 206 203 418
406 212 203 428 410 481 462 l96 93 733 0 733 0 -6 112 c-4 61 -9 114 -13 117
-3 3 -362 6 -797 6 -578 0 -799 -3 -818 -12 -21 -9 -1686 -1587 -2145 -2032
-309 -300 -416 -402 -441 -418 -25 -17 -26 -16 -60 21 -19 20 -33 43 -31 50 2
7 39 44 83 83 44 39 172 160 285 269 113 110 551 528 974 929 422 402 880 837
1017 967 137 131 259 243 271 250 18 10 193 13 833 15 446 1 818 2 828 2 15 1
17 12 17 90 l0 89 -77 8 c-43 4 -447 4 -898 1 -735 -5 -825 -8 -869 -23 -42
-15 -89 -55 -315 -274 -404 -391 -2214 -2102 -2231 -2108 -4 -2 -22 16 -40 38
l-33 42 24 23 c13 12 555 525 1204 1140 649 614 1209 1148 1245 1186 36 38 78
73 93 79 18 6 358 10 958 10 l929 0 0 78 c0 42 3 94 6 114 l7 37 -517 3 c-432
3 -518 5 -525 17 -13 20 -3 38 22 45 12 3 246 6 520 6 l497 0 0 120 0 119
-2661 -6 -2660 -6 3 59 3 59 1975 6 c1086 3 2282 7 2658 8 l682 1 0 150 0 150
-2705 0 -2705 0 0 53 0 54 1112 6 c611 4 1757 7 2547 7 790 0 1507 3 1594 7
l157 6 0 109 0 108 -880 0 c-857 0 -882 1 -918 20 -65 34 -102 73 -112 115
-32 137 23 244 142 280 134 39 238 -7 303 -134 13 -27 16 -47 10 -97 l-7 -64
731 0 731 0 0 150 0 150 -519 0 c-544 0 -541 0 -519 43 8 16 43 17 518 17
l510 0 0 113 0 114 -1627 6 c-896 4 -2151 7 -2790 7 l-1161 0 -4 55 -3 55
2798 0 2797 0 0 129 0 129 -212 7 c-117 4 -483 6 -813 4 l-600 -4 -49 23 c-33
15 -92 64 -175 145 -69 67 -167 162 -217 210 l-91 87 -1772 0 -1771 0 0 60 0
60 1790 0 1791 0 117 -109 c64 -59 178 -165 252 -235 l135 -126 808 0 807 0 0
123 c0 162 15 216 79 278 55 53 99 68 233 76 l88 6 2 476 3 476 30 0 30 0 3
-477 2 -478 145 0 145 0 0 425 c0 385 2 426 16 432 9 3 23 2 32 -3 12 -8 14
-68 13 -432 l-2 -422 151 0 151 0 -2 421 c0 267 3 425 9 431 5 5 18 8 28 6 18
-3 19 -23 22 -431 l2 -427 151 0 151 0 -3 420 c-3 305 -1 422 8 431 6 6 20 8
32 4 21 -6 21 -8 21 -431 l0 -424 145 0 145 0 0 418 c0 229 4 423 9 431 6 9
18 11 35 7 l26 -6 0 -425 0 -425 145 0 145 0 0 425 c0 385 2 426 16 432 9 3
24 2 33 -4 14 -9 16 -53 13 -432 l-3 -421 151 0 150 0 0 422 c-1 248 3 425 9
431 5 5 17 7 27 5 18 -3 19 -23 22 -431 l2 -427 180 0 180 0 0 605 0 604 -59
40 c-77 53 -103 90 -109 156 -5 65 11 116 51 161 126 145 392 83 422 -98 18
-103 -21 -173 -126 -229 l-59 -32 0 -603 0 -604 165 0 165 0 0 474 0 475 21 6
c44 14 44 19 44 -545 l0 -405 101 -3 101 -3 5 118 c7 156 -3 2239 -11 2250 -3
4 -27 19 -53 32 -114 57 -151 208 -77 310 110 153 337 138 422 -28 31 -62 34
-114 11 -169 -19 -47 -67 -97 -108 -113 -17 -7 -39 -19 -48 -27 -17 -14 -18
-84 -18 -1194 l0 -1178 185 0 185 0 0 424 c0 419 0 425 20 431 50 16 50 13 50
-436 l0 -419 141 0 141 0 -3 598 c-3 387 0 603 6 613 6 9 75 77 155 150 79 74
412 397 740 719 327 322 696 682 820 800 124 118 412 399 640 625 228 225 470
461 537 523 l123 112 35 -39 c19 -21 35 -41 35 -43z m513 -16356 c37 -81 67
-153 67 -159 0 -18 -78 -55 -100 -48 -11 3 -40 30 -64 59 -77 90 -65 90 -287
-13 -188 -87 -194 -91 -192 -118 1 -15 36 -97 78 -181 87 -177 62 -166 221
-92 l100 47 -4 96 -4 97 35 15 c20 8 40 15 45 15 7 0 176 -346 209 -426 3 -9
-62 -44 -83 -44 -3 0 -29 22 -57 49 -76 71 -81 71 -208 10 -60 -29 -109 -56
-109 -61 0 -4 41 -90 91 -189 l90 -181 93 7 c79 6 95 5 109 -10 22 -22 21 -31
-4 -56 -24 -24 -356 -187 -487 -240 -71 -28 -85 -31 -92 -19 -21 32 -10 64 34
105 25 22 48 53 51 68 8 29 -10 68 -280 621 l-126 259 -84 -7 c-82 -6 -84 -5
-104 20 -15 19 -18 30 -11 39 13 15 325 175 560 286 173 81 430 198 440 198 3
1 35 -66 73 -147z m-10871 1 c159 -71 288 -131 288 -135 0 -4 -4 -18 -10 -32
-9 -25 -12 -26 -105 -26 l-96 0 -45 -95 c-66 -141 -106 -247 -97 -255 18 -17
465 -200 474 -195 25 16 139 284 139 328 0 18 -17 42 -56 81 -45 44 -55 60
-52 83 5 46 42 41 186 -21 442 -191 428 -183 417 -229 -7 -27 -8 -27 -94 -27
-47 0 -91 -4 -97 -8 -6 -4 -20 -25 -31 -47 -33 -65 -335 -757 -344 -788 -11
-40 4 -74 56 -119 44 -39 55 -67 36 -97 -14 -21 -68 -8 -184 45 -56 25 -153
68 -214 94 -121 51 -203 96 -203 109 0 5 9 19 19 32 18 22 25 24 103 21 l84
-3 57 118 c60 126 120 273 114 279 -7 7 -479 205 -482 202 -7 -7 -109 -238
-131 -296 -13 -34 -24 -72 -24 -84 0 -12 23 -46 55 -79 58 -61 63 -74 41 -104
-18 -25 -47 -16 -276 85 -102 45 -210 91 -240 102 -30 11 -61 25 -67 31 -19
14 -16 42 8 63 17 16 34 19 98 17 l77 -3 23 48 c90 181 346 766 356 812 6 27
1 35 -49 84 -31 29 -56 62 -56 72 0 33 12 64 24 64 6 0 140 -57 298 -127z
m9256 -535 c7 -7 12 -25 12 -40 0 -23 -12 -36 -65 -75 -51 -37 -65 -52 -65
-72 0 -44 102 -394 211 -727 l59 -181 38 -7 c20 -3 60 -6 88 -6 53 0 66 -8 78
-47 9 -28 -14 -41 -149 -81 -55 -16 -176 -53 -268 -81 -196 -60 -213 -62 -220
-24 -7 40 -1 49 69 99 35 25 64 48 64 51 0 52 -243 844 -281 916 -8 14 -23 17
-84 17 -82 0 -115 18 -115 63 0 20 12 25 118 55 64 19 196 60 292 92 192 64
200 66 218 48z m-7518 -128 c47 -11 176 -46 288 -77 203 -57 203 -57 197 -82
-12 -48 -33 -61 -99 -61 -83 0 -99 -13 -130 -107 -63 -192 -193 -701 -203
-794 l-6 -56 64 -44 c52 -36 65 -50 67 -74 1 -17 -1 -35 -6 -42 -6 -9 -87 10
-317 74 -171 47 -314 89 -318 93 -14 12 20 67 45 74 13 3 46 6 75 6 33 0 57 6
67 15 24 24 112 327 200 685 65 263 64 240 8 275 -26 16 -57 41 -69 54 -22 23
-30 61 -16 74 12 12 66 7 153 -13z m6373 -223 c8 -21 51 -346 47 -350 -3 -2
-30 -7 -61 -10 l-55 -5 -43 99 c-29 68 -48 99 -59 99 -10 0 -74 -7 -144 -17
-113 -15 -128 -19 -128 -36 0 -10 32 -221 70 -467 39 -246 70 -452 70 -458 0
-5 30 -15 68 -22 108 -20 132 -33 132 -72 l0 -33 -322 -48 c-178 -26 -326 -48
-330 -47 -5 0 -8 18 -8 40 0 40 0 40 80 80 44 22 80 44 80 48 0 24 -148 934
-153 938 -9 10 -226 -25 -257 -41 -35 -18 -45 -48 -37 -113 7 -61 -6 -90 -48
-107 -60 -26 -80 -20 -94 24 -22 76 -52 319 -38 322 6 1 1203 187 1213 188 7
0 14 -5 17 -12z m-4998 -108 c189 -25 222 -32 237 -50 29 -35 66 -170 119
-433 27 -138 57 -282 66 -321 31 -140 16 -159 237 296 154 315 203 408 215
405 9 -2 136 -19 284 -37 l267 -32 0 -32 c0 -41 -14 -53 -79 -65 -29 -5 -65
-17 -80 -26 l-27 -16 -53 -470 c-29 -258 -50 -472 -46 -476 3 -4 37 -23 73
-42 63 -33 67 -37 70 -72 l3 -38 -41 0 c-99 0 -528 53 -577 71 -28 10 -31 49
-5 71 9 9 42 21 73 27 31 7 64 20 72 29 9 10 23 56 31 102 27 160 86 669 86
742 l-1 33 -25 -40 c-13 -22 -101 -193 -194 -380 -93 -187 -196 -388 -230
-447 l-61 -108 -52 1 c-29 0 -67 5 -86 12 -41 14 -23 -51 -167 584 -60 266
-112 476 -116 469 -20 -36 -94 -614 -100 -785 l-3 -74 70 -41 c65 -39 70 -44
70 -76 0 -34 -1 -35 -42 -38 -50 -4 -312 23 -398 41 -48 10 -61 16 -63 33 -5
33 32 71 79 78 84 13 95 25 113 123 23 125 42 265 70 523 29 260 33 321 21
339 -4 8 -36 26 -70 42 -63 28 -75 42 -75 83 0 42 -15 42 335 -5z m2917 -559
c98 -228 203 -477 234 -553 57 -138 92 -187 133 -187 33 0 61 -29 61 -64 l0
-33 -77 -7 c-94 -8 -437 -6 -478 3 -25 5 -31 12 -33 39 -2 20 2 34 10 37 86
30 128 48 128 55 0 5 -23 65 -51 134 l-52 126 -136 -1 c-75 -1 -179 -4 -231
-8 l-95 -6 -47 -130 c-26 -71 -46 -130 -45 -131 1 0 34 -12 72 -25 68 -23 70
-25 70 -58 0 -30 -4 -36 -30 -43 -37 -11 -410 -16 -421 -5 -4 4 -3 24 2 44 7
31 16 40 49 53 22 8 46 19 54 24 22 14 70 129 201 476 135 358 214 547 263
628 l32 53 105 -3 105 -3 177 -415z"/>
<path d="M14901 22209 c-55 -11 -108 -52 -135 -105 -18 -32 -22 -61 -24 -171
l-4 -133 47 0 46 0 -3 -57 -3 -58 -42 -3 -43 -3 0 -130 0 -129 45 0 45 0 0
-60 0 -60 -40 0 -40 0 0 -114 0 -115 33 -3 c27 -2 32 -7 32 -28 0 -22 -5 -25
-37 -28 l-38 -3 0 -150 0 -149 45 0 45 0 0 -60 0 -60 -45 0 -45 0 0 -109 0
-110 45 -7 45 -6 0 -53 0 -53 -45 -6 -45 -7 0 -150 0 -149 45 0 45 0 0 -60 0
-60 -45 0 -45 0 0 -120 0 -120 30 0 c18 0 33 -7 39 -18 14 -27 -5 -52 -39 -52
-29 0 -30 -2 -30 -47 0 -27 3 -78 7 -115 l6 -68 39 0 39 0 -3 -57 -3 -58 -42
-3 -43 -3 0 -89 c0 -96 3 -100 61 -100 28 0 29 -1 29 -54 l0 -55 -45 -7 -45
-6 0 -114 0 -113 43 -3 42 -3 3 -57 3 -58 -46 0 -45 0 0 -39 c0 -21 3 -65 6
-98 l7 -61 38 -6 39 -6 0 -55 c0 -54 0 -55 -29 -55 -62 0 -61 2 -61 -166 l0
-154 24 0 c23 0 56 -23 56 -38 -1 -18 -18 -30 -45 -34 -27 -3 -30 -7 -37 -53
-16 -105 18 -200 85 -239 46 -27 134 -46 208 -46 l48 0 3 43 3 42 58 3 57 3 0
-46 0 -45 124 0 123 0 7 39 c10 64 49 63 61 -2 l7 -37 149 0 149 0 0 28 c0 66
8 73 69 70 l56 -3 -3 -47 -4 -48 171 0 171 0 0 24 c0 13 8 34 18 46 17 21 19
21 35 5 9 -9 17 -30 17 -46 l0 -29 145 0 145 0 0 39 c0 33 4 40 25 45 36 9 45
0 45 -45 l0 -40 113 3 112 3 3 43 3 43 57 -3 57 -3 3 -42 3 -43 115 0 114 0 0
29 c0 52 9 61 55 61 47 0 62 -12 71 -58 l7 -32 128 0 128 0 3 43 c3 40 5 42
37 45 61 6 78 -4 85 -48 l6 -40 150 0 150 0 0 45 0 45 51 0 c49 0 51 -1 66
-39 l15 -38 90 -7 c50 -3 106 -6 125 -6 l33 0 0 50 0 51 58 -3 57 -3 5 -45 5
-45 118 -3 117 -3 0 35 c0 40 20 56 69 56 28 0 32 -4 42 -45 l11 -45 144 0
144 0 6 39 c5 29 12 41 28 45 35 9 36 8 36 -39 l0 -45 75 0 c197 0 275 65 275
228 l0 52 -39 0 -39 0 -4 55 c-3 59 1 65 53 65 l29 0 0 140 0 140 -29 0 c-59
0 -70 59 -13 71 19 4 37 11 40 15 4 5 6 71 4 147 l-3 137 -33 0 c-37 0 -51 12
-61 52 -9 34 23 68 65 68 l30 0 0 104 0 103 -25 -5 c-53 -10 -78 51 -26 63 32
7 35 16 47 136 6 61 5 68 -14 78 -11 6 -30 11 -41 11 -19 0 -21 6 -21 60 l0
60 40 0 40 0 0 120 0 120 -32 0 c-50 0 -56 9 -51 68 l6 52 38 0 c21 0 41 5 44
10 4 6 3 66 -1 135 l-7 124 -36 3 c-31 3 -36 6 -36 28 0 22 5 25 38 28 l37 3
2 105 c1 57 2 119 2 137 1 29 -3 33 -41 45 l-43 14 0 53 c0 56 8 65 56 65 24
0 24 1 24 104 l0 104 -40 7 c-34 6 -40 11 -40 31 0 18 7 25 28 29 57 12 57 12
60 157 l3 135 -41 18 c-52 23 -53 56 -2 66 18 4 34 8 36 10 1 2 0 46 -2 97
l-4 92 -34 0 -35 0 3 58 c3 56 3 57 36 60 l32 3 0 135 0 134 -39 0 c-41 0 -55
18 -44 60 4 15 11 18 32 14 48 -10 62 12 53 86 -7 64 -7 65 -39 68 l-33 3 0
60 0 59 35 0 35 0 0 68 c-1 144 -63 205 -224 218 -105 9 -124 3 -132 -46 l-7
-40 -53 0 c-49 0 -54 2 -54 23 0 12 -3 32 -6 45 -6 21 -10 22 -140 22 l-134 0
0 -29 c0 -41 -9 -61 -29 -61 -23 0 -41 20 -41 46 0 41 -18 45 -191 42 l-162
-3 -15 -42 -14 -43 -54 0 -54 0 0 39 0 39 -96 7 c-103 8 -114 4 -114 -41 0
-12 -7 -28 -16 -35 -14 -11 -18 -10 -30 6 -8 10 -14 29 -14 42 l0 23 -165 0
-165 0 0 -28 c0 -38 -17 -52 -62 -52 -35 0 -38 3 -49 39 l-12 39 -151 7 c-200
9 -197 10 -210 -45 -7 -29 -16 -45 -26 -45 -10 0 -19 16 -26 45 l-11 45 -141
3 -142 3 -6 -40 c-7 -45 -32 -61 -51 -35 -7 10 -13 30 -13 46 l0 28 -144 0
-143 0 -7 -39 c-6 -42 -21 -54 -48 -39 -12 6 -18 20 -18 43 l0 35 -145 0 -145
0 0 -26 c0 -29 -16 -64 -30 -64 -18 0 -40 33 -40 61 l0 30 -142 -3 -143 -3 -3
-32 c-4 -40 -26 -61 -46 -43 -8 6 -16 26 -18 43 l-3 32 -145 0 -145 0 -6 -38
c-12 -76 -42 -73 -55 6 l-7 37 -143 0 -143 0 -7 -37 c-13 -76 -47 -77 -59 -2
l-7 39 -66 -1 c-37 -1 -87 -5 -111 -10z m1944 -876 c-4 -43 -9 -81 -12 -85 -2
-4 -70 -28 -151 -53 -81 -25 -167 -56 -191 -68 -85 -42 -80 -8 -83 -567 -2
-272 1 -501 5 -507 6 -10 177 -13 797 -13 620 0 791 3 797 13 4 6 7 234 5 506
-3 543 -2 534 -64 564 -19 9 -111 41 -206 72 l-172 56 0 48 c0 27 3 63 6 80
l7 31 671 0 671 0 -5 -82 -5 -83 -65 -22 c-36 -12 -118 -38 -182 -57 -68 -21
-129 -46 -145 -60 l-28 -24 -3 -1224 c-2 -1410 -13 -1274 98 -1320 36 -14 126
-44 200 -65 l135 -39 3 -82 3 -82 -681 0 -681 0 3 82 3 82 150 44 c172 49 231
75 259 115 21 28 21 42 24 603 l2 574 -800 0 -800 0 0 -567 c0 -545 1 -569 20
-600 28 -47 48 -56 240 -116 l175 -53 3 -82 3 -82 -676 0 -675 0 0 83 0 84
118 30 c203 53 281 92 303 150 5 15 9 520 10 1223 1 1337 6 1246 -69 1288 -20
11 -95 37 -166 56 -70 20 -143 43 -162 51 l-34 14 0 80 0 81 676 0 676 0 -7
-77z"/>
<path d="M17593 8518 c-5 -7 -38 -94 -73 -193 -35 -99 -65 -186 -68 -192 -3
-10 32 -13 157 -13 140 0 161 2 161 16 0 9 -14 50 -31 92 -18 43 -51 126 -75
187 -23 60 -46 111 -52 113 -5 1 -13 -3 -19 -10z"/>
</g>
</svg>
